<mxfile host="Electron" modified="2023-08-30T15:11:44.095Z" agent="Mozilla/5.0 (Windows NT 10.0; Win64; x64) AppleWebKit/537.36 (KHTML, like Gecko) draw.io/21.5.1 Chrome/112.0.5615.204 Electron/24.6.0 Safari/537.36" etag="D75lkkhQkU3HvldI5AMn" version="21.5.1" type="device">
  <diagram name="第 1 页" id="3DA6XRUYU_NdGonJkax2">
    <mxGraphModel dx="667" dy="482" grid="1" gridSize="10" guides="1" tooltips="1" connect="1" arrows="1" fold="1" page="1" pageScale="1" pageWidth="827" pageHeight="1169" math="0" shadow="0">
      <root>
        <mxCell id="0" />
        <mxCell id="1" parent="0" />
        <mxCell id="BhcKGpLBuoTgLVyQ5rF1-1" value="0" style="whiteSpace=wrap;html=1;aspect=fixed;rounded=0;fontSize=24;fontStyle=1" parent="1" vertex="1">
          <mxGeometry y="60" width="80" height="80" as="geometry" />
        </mxCell>
        <mxCell id="BhcKGpLBuoTgLVyQ5rF1-2" value="1" style="whiteSpace=wrap;html=1;aspect=fixed;rounded=0;fontSize=24;fontStyle=1" parent="1" vertex="1">
          <mxGeometry x="80" y="60" width="80" height="80" as="geometry" />
        </mxCell>
        <mxCell id="BhcKGpLBuoTgLVyQ5rF1-3" value="2" style="whiteSpace=wrap;html=1;aspect=fixed;rounded=0;fontSize=24;fontStyle=1" parent="1" vertex="1">
          <mxGeometry x="160" y="60" width="80" height="80" as="geometry" />
        </mxCell>
        <mxCell id="BhcKGpLBuoTgLVyQ5rF1-4" value="3" style="whiteSpace=wrap;html=1;aspect=fixed;rounded=0;fontSize=24;fontStyle=1" parent="1" vertex="1">
          <mxGeometry x="240" y="60" width="80" height="80" as="geometry" />
        </mxCell>
        <mxCell id="BhcKGpLBuoTgLVyQ5rF1-5" value="&lt;b&gt;&lt;font style=&quot;font-size: 24px;&quot;&gt;空&lt;/font&gt;&lt;/b&gt;" style="whiteSpace=wrap;html=1;aspect=fixed;" parent="1" vertex="1">
          <mxGeometry x="320" y="60" width="80" height="80" as="geometry" />
        </mxCell>
        <mxCell id="BhcKGpLBuoTgLVyQ5rF1-6" value="target" style="text;strokeColor=none;align=center;fillColor=none;html=1;verticalAlign=middle;whiteSpace=wrap;rounded=0;fontSize=15;" parent="1" vertex="1">
          <mxGeometry x="250" y="110" width="60" height="30" as="geometry" />
        </mxCell>
        <mxCell id="BhcKGpLBuoTgLVyQ5rF1-8" value="middle" style="text;html=1;align=center;verticalAlign=middle;resizable=0;points=[];autosize=1;strokeColor=none;fillColor=none;fontSize=15;" parent="1" vertex="1">
          <mxGeometry x="165" y="110" width="70" height="30" as="geometry" />
        </mxCell>
        <mxCell id="BhcKGpLBuoTgLVyQ5rF1-11" value="" style="edgeStyle=orthogonalEdgeStyle;orthogonalLoop=1;jettySize=auto;html=1;" parent="1" source="BhcKGpLBuoTgLVyQ5rF1-9" target="BhcKGpLBuoTgLVyQ5rF1-1" edge="1">
          <mxGeometry relative="1" as="geometry" />
        </mxCell>
        <mxCell id="BhcKGpLBuoTgLVyQ5rF1-9" value="left&lt;br style=&quot;font-size: 21px;&quot;&gt;" style="text;html=1;align=center;verticalAlign=middle;resizable=0;points=[];autosize=1;strokeColor=none;fillColor=none;fontSize=21;" parent="1" vertex="1">
          <mxGeometry x="15" y="170" width="50" height="40" as="geometry" />
        </mxCell>
        <mxCell id="BhcKGpLBuoTgLVyQ5rF1-12" value="" style="edgeStyle=orthogonalEdgeStyle;orthogonalLoop=1;jettySize=auto;html=1;" parent="1" source="BhcKGpLBuoTgLVyQ5rF1-10" target="BhcKGpLBuoTgLVyQ5rF1-5" edge="1">
          <mxGeometry relative="1" as="geometry" />
        </mxCell>
        <mxCell id="BhcKGpLBuoTgLVyQ5rF1-10" value="right&lt;br style=&quot;font-size: 21px;&quot;&gt;&lt;br style=&quot;font-size: 21px;&quot;&gt;" style="text;html=1;align=center;verticalAlign=middle;resizable=0;points=[];autosize=1;strokeColor=none;fillColor=none;fontSize=21;" parent="1" vertex="1">
          <mxGeometry x="330" y="170" width="60" height="60" as="geometry" />
        </mxCell>
        <mxCell id="BhcKGpLBuoTgLVyQ5rF1-13" value="0" style="whiteSpace=wrap;html=1;aspect=fixed;rounded=0;fontSize=24;fontStyle=1" parent="1" vertex="1">
          <mxGeometry x="500" y="60" width="80" height="80" as="geometry" />
        </mxCell>
        <mxCell id="BhcKGpLBuoTgLVyQ5rF1-14" value="1" style="whiteSpace=wrap;html=1;aspect=fixed;rounded=0;fontSize=24;fontStyle=1" parent="1" vertex="1">
          <mxGeometry x="580" y="60" width="80" height="80" as="geometry" />
        </mxCell>
        <mxCell id="BhcKGpLBuoTgLVyQ5rF1-15" value="2" style="whiteSpace=wrap;html=1;aspect=fixed;rounded=0;fontSize=24;fontStyle=1" parent="1" vertex="1">
          <mxGeometry x="660" y="60" width="80" height="80" as="geometry" />
        </mxCell>
        <mxCell id="BhcKGpLBuoTgLVyQ5rF1-16" value="3" style="whiteSpace=wrap;html=1;aspect=fixed;rounded=0;fontSize=24;fontStyle=1" parent="1" vertex="1">
          <mxGeometry x="740" y="60" width="80" height="80" as="geometry" />
        </mxCell>
        <mxCell id="BhcKGpLBuoTgLVyQ5rF1-17" value="&lt;b&gt;&lt;font style=&quot;font-size: 24px;&quot;&gt;空&lt;/font&gt;&lt;/b&gt;" style="whiteSpace=wrap;html=1;aspect=fixed;" parent="1" vertex="1">
          <mxGeometry x="820" y="60" width="80" height="80" as="geometry" />
        </mxCell>
        <mxCell id="BhcKGpLBuoTgLVyQ5rF1-21" value="left&lt;br style=&quot;font-size: 21px;&quot;&gt;" style="text;html=1;align=center;verticalAlign=middle;resizable=0;points=[];autosize=1;strokeColor=none;fillColor=none;fontSize=21;" parent="1" vertex="1">
          <mxGeometry x="515" y="170" width="50" height="40" as="geometry" />
        </mxCell>
        <mxCell id="BhcKGpLBuoTgLVyQ5rF1-22" value="" style="edgeStyle=orthogonalEdgeStyle;orthogonalLoop=1;jettySize=auto;html=1;" parent="1" source="BhcKGpLBuoTgLVyQ5rF1-23" target="BhcKGpLBuoTgLVyQ5rF1-17" edge="1">
          <mxGeometry relative="1" as="geometry" />
        </mxCell>
        <mxCell id="BhcKGpLBuoTgLVyQ5rF1-23" value="right&lt;br style=&quot;font-size: 21px;&quot;&gt;&lt;br style=&quot;font-size: 21px;&quot;&gt;" style="text;html=1;align=center;verticalAlign=middle;resizable=0;points=[];autosize=1;strokeColor=none;fillColor=none;fontSize=21;" parent="1" vertex="1">
          <mxGeometry x="830" y="170" width="60" height="60" as="geometry" />
        </mxCell>
        <mxCell id="BhcKGpLBuoTgLVyQ5rF1-24" value="" style="shape=flexArrow;endArrow=classic;html=1;exitX=1;exitY=0.5;exitDx=0;exitDy=0;entryX=0;entryY=0.5;entryDx=0;entryDy=0;" parent="1" source="BhcKGpLBuoTgLVyQ5rF1-5" target="BhcKGpLBuoTgLVyQ5rF1-13" edge="1">
          <mxGeometry width="50" height="50" relative="1" as="geometry">
            <mxPoint x="460" y="170" as="sourcePoint" />
            <mxPoint x="510" y="120" as="targetPoint" />
          </mxGeometry>
        </mxCell>
        <mxCell id="BhcKGpLBuoTgLVyQ5rF1-26" value="" style="edgeStyle=orthogonalEdgeStyle;orthogonalLoop=1;jettySize=auto;html=1;" parent="1" source="BhcKGpLBuoTgLVyQ5rF1-18" edge="1">
          <mxGeometry relative="1" as="geometry">
            <mxPoint x="540" y="170" as="sourcePoint" />
            <mxPoint x="780" y="130" as="targetPoint" />
            <Array as="points">
              <mxPoint x="780" y="190" />
            </Array>
          </mxGeometry>
        </mxCell>
        <mxCell id="BhcKGpLBuoTgLVyQ5rF1-19" value="middle" style="text;html=1;align=center;verticalAlign=middle;resizable=0;points=[];autosize=1;strokeColor=none;fillColor=none;fontSize=15;" parent="1" vertex="1">
          <mxGeometry x="665" y="110" width="70" height="30" as="geometry" />
        </mxCell>
        <mxCell id="BhcKGpLBuoTgLVyQ5rF1-18" value="target" style="text;strokeColor=none;align=center;fillColor=none;html=1;verticalAlign=middle;whiteSpace=wrap;rounded=0;fontSize=15;" parent="1" vertex="1">
          <mxGeometry x="750" y="110" width="60" height="30" as="geometry" />
        </mxCell>
        <mxCell id="ruPmxOjQgybk1hTYpyor-2" value="" style="endArrow=none;html=1;rounded=0;exitX=0.987;exitY=0.325;exitDx=0;exitDy=0;exitPerimeter=0;" edge="1" parent="1" source="BhcKGpLBuoTgLVyQ5rF1-21">
          <mxGeometry width="50" height="50" relative="1" as="geometry">
            <mxPoint x="540" y="280" as="sourcePoint" />
            <mxPoint x="780" y="183" as="targetPoint" />
          </mxGeometry>
        </mxCell>
        <mxCell id="ruPmxOjQgybk1hTYpyor-3" value="" style="endArrow=classic;html=1;rounded=0;" edge="1" parent="1" source="BhcKGpLBuoTgLVyQ5rF1-19">
          <mxGeometry width="50" height="50" relative="1" as="geometry">
            <mxPoint x="730" y="130" as="sourcePoint" />
            <mxPoint x="780" y="120" as="targetPoint" />
          </mxGeometry>
        </mxCell>
      </root>
    </mxGraphModel>
  </diagram>
</mxfile>
